<?xml version="1.0" encoding="UTF-8" standalone="no"?><!DOCTYPE svg PUBLIC "-//W3C//DTD SVG 1.1//EN" "http://www.w3.org/Graphics/SVG/1.1/DTD/svg11.dtd"><svg width="100%" height="100%" viewBox="0 0 1657 376" version="1.1" xmlns="http://www.w3.org/2000/svg" xmlns:xlink="http://www.w3.org/1999/xlink" xml:space="preserve" style="fill-rule:evenodd;clip-rule:evenodd;stroke-linejoin:round;stroke-miterlimit:1.41421;"><path d="M72.031,333.429c0,-5.003 -0.55,-9.528 -1.66,-13.509c-1.103,-3.975 -2.737,-7.347 -4.915,-10.125c-2.181,-2.757 -4.856,-4.882 -8.053,-6.347c-3.191,-1.472 -6.882,-2.197 -11.047,-2.197c-4.006,0 -7.635,0.781 -10.897,2.309c-3.259,1.572 -6.041,3.769 -8.334,6.56c-2.3,2.812 -4.079,6.193 -5.341,10.121c-1.253,3.935 -1.884,8.313 -1.884,13.079c0,4.775 0.606,9.103 1.796,13.037c1.188,3.919 2.907,7.263 5.138,10.016c2.241,2.778 4.934,4.915 8.109,6.459c3.172,1.541 6.722,2.297 10.641,2.297c4.175,0 7.903,-0.703 11.187,-2.141c3.272,-1.425 6.05,-3.478 8.3,-6.203c2.263,-2.697 3.985,-6.019 5.182,-9.956c1.193,-3.928 1.778,-8.419 1.778,-13.4M84.946,332.123c0,6.656 -0.912,12.693 -2.712,18.084c-1.816,5.406 -4.419,9.972 -7.8,13.747c-3.384,3.753 -7.503,6.653 -12.369,8.691c-4.856,2.028 -10.353,3.025 -16.481,3.025c-5.872,0 -11.197,-0.979 -15.972,-2.954c-4.775,-1.993 -8.847,-4.809 -12.203,-8.434c-3.356,-3.647 -5.959,-8.041 -7.794,-13.147c-1.837,-5.103 -2.74,-10.797 -2.74,-17.05c0,-6.572 0.903,-12.522 2.706,-17.869c1.806,-5.334 4.444,-9.903 7.897,-13.656c3.453,-3.794 7.656,-6.675 12.615,-8.728c4.957,-2.028 10.594,-3.069 16.894,-3.069c5.75,0 10.969,1 15.656,2.997c4.691,2.013 8.682,4.822 11.982,8.472c3.3,3.641 5.846,8.003 7.631,13.053c1.794,5.081 2.69,10.669 2.69,16.838" style="fill:#fff;fill-rule:nonzero;"/><path d="M206.681,313.946c0,-3.953 -1.422,-6.834 -4.253,-8.647c-2.831,-1.812 -7.188,-2.722 -13.069,-2.722l-6.769,0l0,25.247l6.138,0c5.787,0 10.237,-1.212 13.316,-3.665c3.096,-2.469 4.637,-5.86 4.637,-10.213M226.159,374.527l-14.812,0l-23.007,-36.49l-5.75,0l0,36.49l-12.59,0l0,-82.668l18.728,0c4.384,0 8.475,0.318 12.272,1.031c3.781,0.712 7.072,1.909 9.859,3.597c2.791,1.681 4.981,3.909 6.578,6.687c1.603,2.753 2.41,6.222 2.41,10.416c0,3.037 -0.547,5.834 -1.638,8.359c-1.087,2.519 -2.512,4.694 -4.278,6.563c-1.775,1.884 -3.812,3.45 -6.103,4.718c-2.303,1.257 -4.663,2.157 -7.094,2.7l25.425,38.597Z" style="fill:#fff;fill-rule:nonzero;"/><path d="M353.838,302.576l-20.825,0l0,71.953l-12.522,0l0,-71.953l-20.959,0l0,-10.719l54.306,0l0,10.719Z" style="fill:#fff;fill-rule:nonzero;"/><path d="M506.819,374.528l-12.588,0l0,-36.731l-44.975,0l0,36.731l-12.584,0l0,-82.672l12.584,0l0,35.313l44.975,0l0,-35.313l12.588,0l0,82.672Z" style="fill:#fff;fill-rule:nonzero;"/><path d="M657.055,333.429c0,-5.003 -0.56,-9.528 -1.66,-13.509c-1.115,-3.975 -2.753,-7.347 -4.928,-10.125c-2.169,-2.757 -4.853,-4.882 -8.047,-6.347c-3.19,-1.472 -6.875,-2.197 -11.05,-2.197c-4.006,0 -7.637,0.781 -10.89,2.309c-3.263,1.572 -6.038,3.769 -8.347,6.56c-2.303,2.812 -4.075,6.206 -5.332,10.121c-1.25,3.935 -1.887,8.313 -1.887,13.079c0,4.775 0.6,9.103 1.794,13.037c1.2,3.919 2.906,7.263 5.143,10.016c2.232,2.778 4.941,4.915 8.122,6.459c3.169,1.541 6.713,2.297 10.625,2.297c4.175,0 7.91,-0.703 11.191,-2.141c3.275,-1.425 6.037,-3.478 8.297,-6.203c2.253,-2.697 3.99,-6.019 5.181,-9.956c1.184,-3.928 1.788,-8.419 1.788,-13.4M669.955,332.123c0,6.656 -0.9,12.693 -2.716,18.084c-1.8,5.406 -4.403,9.972 -7.784,13.747c-3.391,3.753 -7.516,6.653 -12.369,8.691c-4.853,2.028 -10.353,3.025 -16.488,3.025c-5.875,0 -11.197,-0.979 -15.965,-2.954c-4.772,-1.993 -8.847,-4.809 -12.21,-8.434c-3.362,-3.647 -5.962,-8.041 -7.793,-13.147c-1.838,-5.103 -2.75,-10.797 -2.75,-17.05c0,-6.572 0.906,-12.522 2.725,-17.869c1.806,-5.334 4.428,-9.903 7.89,-13.656c3.441,-3.794 7.65,-6.675 12.619,-8.728c4.953,-2.028 10.591,-3.069 16.894,-3.069c5.75,0 10.972,1 15.653,2.997c4.678,2.013 8.672,4.822 11.972,8.472c3.306,3.641 5.853,8.003 7.647,13.053c1.787,5.081 2.675,10.669 2.675,16.838" style="fill:#fff;fill-rule:nonzero;"/><path d="M811.95,331.721c0,-5.078 -0.809,-9.428 -2.394,-13.094c-1.606,-3.669 -3.878,-6.694 -6.853,-9.087c-2.947,-2.372 -6.572,-4.138 -10.85,-5.279c-4.281,-1.125 -9.109,-1.684 -14.475,-1.684l-9.768,0l0,61.341l8.621,0c5.447,0 10.382,-0.76 14.791,-2.269c4.4,-1.5 8.163,-3.641 11.284,-6.453c3.104,-2.794 5.482,-6.169 7.154,-10.156c1.65,-3.975 2.49,-8.438 2.49,-13.319M824.913,331.577c0,6.434 -1.188,12.297 -3.541,17.575c-2.359,5.297 -5.681,9.816 -9.947,13.584c-4.247,3.76 -9.34,6.672 -15.259,8.729c-5.925,2.025 -12.428,3.062 -19.55,3.062l-21.591,0l0,-82.669l22.613,0c7.503,0 14.165,0.835 20.025,2.519c5.859,1.691 10.815,4.191 14.868,7.544c4.044,3.337 7.11,7.49 9.229,12.44c2.09,4.975 3.153,10.725 3.153,17.216" style="fill:#fff;fill-rule:nonzero;"/><path d="M970.942,333.429c0,-5.003 -0.562,-9.528 -1.681,-13.509c-1.1,-3.975 -2.75,-7.347 -4.9,-10.125c-2.188,-2.757 -4.872,-4.882 -8.066,-6.347c-3.212,-1.472 -6.884,-2.197 -11.05,-2.197c-3.997,0 -7.634,0.781 -10.89,2.309c-3.263,1.572 -6.038,3.769 -8.338,6.56c-2.303,2.812 -4.072,6.206 -5.334,10.121c-1.263,3.935 -1.888,8.313 -1.888,13.079c0,4.775 0.591,9.103 1.788,13.037c1.187,3.919 2.909,7.263 5.143,10.016c2.222,2.778 4.954,4.915 8.113,6.459c3.166,1.541 6.728,2.297 10.634,2.297c4.188,0 7.891,-0.703 11.166,-2.141c3.306,-1.425 6.072,-3.478 8.322,-6.203c2.269,-2.697 3.975,-6.019 5.172,-9.956c1.193,-3.928 1.809,-8.419 1.809,-13.4M983.839,332.123c0,6.656 -0.909,12.693 -2.713,18.084c-1.834,5.406 -4.406,9.972 -7.812,13.747c-3.384,3.753 -7.516,6.653 -12.341,8.691c-4.868,2.028 -10.362,3.025 -16.5,3.025c-5.875,0 -11.206,-0.979 -15.965,-2.954c-4.772,-1.981 -8.844,-4.809 -12.188,-8.434c-3.384,-3.647 -5.984,-8.041 -7.806,-13.147c-1.838,-5.103 -2.747,-10.797 -2.747,-17.05c0,-6.572 0.891,-12.522 2.713,-17.869c1.809,-5.334 4.44,-9.903 7.871,-13.656c3.447,-3.794 7.666,-6.675 12.632,-8.728c4.95,-2.028 10.606,-3.069 16.9,-3.069c5.731,0 10.95,1 15.65,2.997c4.697,2.013 8.687,4.822 11.993,8.472c3.288,3.641 5.844,8.003 7.632,13.053c1.772,5.081 2.681,10.669 2.681,16.838" style="fill:#fff;fill-rule:nonzero;"/><path d="M1140.91,374.528l-12.35,0l-40.419,-53.69c-0.325,-0.319 -0.818,-1.016 -1.518,-2.069c-0.704,-1.028 -1.45,-2.156 -2.235,-3.409c-0.797,-1.229 -1.534,-2.444 -2.269,-3.641c-0.731,-1.2 -1.275,-2.122 -1.6,-2.753l0,65.562l-11.621,0l0,-82.672l13.221,0l38.585,51.804c0.653,0.9 1.39,1.971 2.253,3.25c0.844,1.228 1.691,2.515 2.487,3.821c0.819,1.288 1.547,2.519 2.269,3.716c0.691,1.166 1.231,2.106 1.635,2.831l0,-65.422l11.562,0l0,82.672Z" style="fill:#fff;fill-rule:nonzero;"/><path d="M1278.04,302.576l-20.822,0l0,71.953l-12.538,0l0,-71.953l-20.95,0l0,-10.719l54.31,0l0,10.719Z" style="fill:#fff;fill-rule:nonzero;"/><rect x="1360.86" y="291.857" width="12.588" height="82.672" style="fill:#fff;fill-rule:nonzero;"/><path d="M1471.55,334.085c0,4.641 0.672,8.866 2.013,12.672c1.343,3.809 3.24,7.091 5.681,9.816c2.466,2.722 5.387,4.822 8.819,6.331c3.422,1.487 7.237,2.225 11.406,2.225c3.881,0 7.722,-0.503 11.528,-1.541c3.816,-1.012 7.472,-2.484 10.956,-4.406l0,11.322c-3.178,1.703 -6.759,2.984 -10.734,3.856c-3.959,0.881 -8.272,1.31 -12.953,1.31c-5.844,0 -11.21,-1.013 -16.085,-3.066c-4.868,-2.05 -9.062,-4.897 -12.565,-8.559c-3.544,-3.666 -6.26,-8.035 -8.194,-13.135c-1.947,-5.078 -2.903,-10.703 -2.903,-16.825c0,-6.3 1.041,-12.125 3.109,-17.415c2.113,-5.294 4.991,-9.872 8.675,-13.697c3.672,-3.847 8.069,-6.832 13.097,-8.972c5.047,-2.166 10.538,-3.238 16.447,-3.238c2,0 4.022,0.116 6.075,0.347c2.056,0.238 4.05,0.55 5.997,0.963c1.953,0.403 3.85,0.872 5.591,1.397c1.775,0.543 3.387,1.128 4.825,1.778l0,11.225c-1.491,-0.628 -3.144,-1.269 -4.982,-1.9c-1.822,-0.657 -3.722,-1.213 -5.69,-1.685c-1.947,-0.512 -3.953,-0.912 -6.007,-1.197c-2.037,-0.296 -4.021,-0.44 -5.931,-0.44c-4.009,0 -7.722,0.781 -11.153,2.309c-3.431,1.572 -6.403,3.769 -8.906,6.635c-2.5,2.85 -4.491,6.315 -5.947,10.34c-1.45,4.041 -2.169,8.563 -2.169,13.55" style="fill:#fff;fill-rule:nonzero;"/><path d="M1652.51,351.403c0,3.356 -0.588,6.534 -1.76,9.465c-1.162,2.975 -2.887,5.557 -5.175,7.744c-2.281,2.194 -5.109,3.922 -8.49,5.172c-3.388,1.256 -7.319,1.884 -11.794,1.884c-2.166,0 -4.325,-0.125 -6.466,-0.415c-2.15,-0.291 -4.212,-0.669 -6.147,-1.197c-1.946,-0.541 -3.734,-1.166 -5.4,-1.866c-1.656,-0.712 -3.128,-1.456 -4.34,-2.269l0,-12.784c1.356,1 2.95,1.953 4.825,2.916c1.85,0.965 3.781,1.812 5.859,2.562c2.013,0.741 4.056,1.356 6.066,1.813c2.028,0.472 3.85,0.7 5.484,0.7c2.475,0 4.628,-0.303 6.478,-0.925c1.857,-0.616 3.403,-1.485 4.663,-2.641c1.265,-1.144 2.187,-2.525 2.828,-4.119c0.603,-1.603 0.928,-3.356 0.928,-5.281c0,-2.169 -0.4,-4.006 -1.197,-5.494c-0.784,-1.484 -1.919,-2.793 -3.356,-3.881c-1.453,-1.122 -3.191,-2.122 -5.234,-3.028c-2.044,-0.894 -4.329,-1.819 -6.838,-2.791c-3.434,-1.365 -6.512,-2.74 -9.2,-4.137c-2.7,-1.378 -4.95,-2.956 -6.784,-4.719c-1.825,-1.756 -3.216,-3.825 -4.172,-6.15c-0.972,-2.297 -1.45,-5.075 -1.45,-8.247c0,-3.481 0.703,-6.678 2.106,-9.512c1.425,-2.807 3.334,-5.222 5.763,-7.219c2.415,-1.969 5.268,-3.513 8.512,-4.597c3.281,-1.078 6.769,-1.622 10.466,-1.622c3.956,0 7.55,0.366 10.728,1.094c3.206,0.703 6.103,1.647 8.753,2.741l0,11.496c-1.234,-0.581 -2.65,-1.181 -4.278,-1.721c-1.619,-0.544 -3.322,-1.057 -5.11,-1.488c-1.79,-0.469 -3.578,-0.837 -5.365,-1.109c-1.791,-0.272 -3.503,-0.416 -5.116,-0.416c-2.256,0 -4.259,0.288 -6.003,0.869c-1.762,0.584 -3.225,1.381 -4.441,2.375c-1.228,1.037 -2.14,2.265 -2.746,3.703c-0.607,1.428 -0.932,2.997 -0.932,4.694c0,1.909 0.403,3.556 1.222,4.953c0.81,1.378 1.944,2.609 3.444,3.706c1.484,1.084 3.306,2.081 5.4,3.006c2.091,0.907 4.472,1.872 7.056,2.9c3.322,1.313 6.294,2.707 8.913,4.119c2.625,1.431 4.837,3.069 6.65,4.916c1.8,1.853 3.203,3.99 4.181,6.4c0.987,2.397 1.469,5.209 1.469,8.4" style="fill:#fff;fill-rule:nonzero;"/><rect x="4.505" y="267.226" width="1652.04" height="11.697" style="fill:#fff;fill-rule:nonzero;"/><path d="M44.908,6.639c-40.828,-0.294 -35.728,39.393 -35.728,39.393c10.781,106.616 -0.56,204.719 -0.56,204.719c53.869,-17.006 214.91,-1.141 214.91,-1.141c35.156,0.569 32.325,-30.031 32.325,-30.031c-14.169,-130.44 0.559,-214.362 0.559,-214.362c-35.153,12.481 -211.506,1.422 -211.506,1.422ZM137.95,44.481c11.134,0 21.709,1.622 31.721,4.85c10.01,3.25 18.835,8.588 26.469,16.034c7.644,7.447 13.085,15.807 16.31,25.047c3.246,9.266 4.862,19.325 4.862,30.157c0,11.59 -1.812,22.728 -5.416,33.418c-3.621,10.691 -9.178,19.753 -16.703,27.216c-7.528,7.431 -16.8,13.037 -27.778,16.775c-10.981,3.697 -22.544,5.566 -34.662,5.566c-11.519,0 -22.553,-1.685 -33.132,-5.082c-10.581,-3.39 -19.587,-8.59 -27.031,-15.634c-7.456,-7.041 -12.837,-15.316 -16.153,-24.831c-3.312,-9.528 -4.962,-19.619 -4.962,-30.31c0,-11.756 1.99,-23.018 5.984,-33.825c3.987,-10.787 9.875,-19.909 17.659,-27.375c7.788,-7.44 17.197,-12.975 28.232,-16.584c11.025,-3.628 22.553,-5.422 34.6,-5.422ZM136.7,59.606c-9.025,0 -17.569,1.45 -25.625,4.344c-8.041,2.894 -15.069,7.537 -21.05,13.928c-5.982,6.387 -10.419,13.925 -13.322,22.547c-2.897,8.65 -4.347,17.684 -4.347,27.078c0,8.731 1.428,17.087 4.287,25.094c2.866,8.018 7.075,14.693 12.644,20.043c5.575,5.329 12.275,9.294 20.103,11.897c7.825,2.588 15.985,3.885 24.485,3.885c8.74,0 17.078,-1.385 25.028,-4.182c7.928,-2.768 14.775,-7.19 20.54,-13.259c5.75,-6.037 10.028,-13.353 12.803,-21.937c2.782,-8.563 4.175,-17.538 4.175,-26.954c0,-8.868 -1.256,-17.35 -3.775,-25.425c-2.515,-8.09 -6.546,-14.987 -12.078,-20.696c-5.531,-5.716 -12.103,-9.879 -19.7,-12.469c-7.609,-2.597 -15.656,-3.894 -24.168,-3.894ZM165.835,78.961c14.196,0.001 12.087,14.694 12.087,14.694c0,15.231 -19.881,14.522 -19.881,14.522c-25.885,0 -25.053,57.903 -25.053,57.903c0,12.516 -14.91,11.253 -14.91,11.253c-12.143,0 -14.322,-14.322 -14.322,-14.322l1.113,-48.7c1.4,-10.303 -0.541,-14.487 -0.541,-14.487c-2.512,-6.953 0.822,-11.691 0.822,-11.691c5.575,-10.568 16.153,-8.068 16.153,-8.068c1.937,0.842 11.997,-1.096 12.035,-1.104l32.497,0Z" style="fill:#fff;"/><path d="M447.642,88.35c0,-14.122 -5.587,-23.885 -16.734,-29.328c-8.657,-4.178 -22.175,-6.247 -40.585,-6.247c-13.259,0 -20.297,1.672 -21.137,5.04c-0.831,3.925 -1.253,15.25 -1.253,34.007c0,2.659 0.072,6.593 0.212,11.79c0.131,5.225 0.21,9.1 0.21,11.638c0,0.569 2.228,1.169 6.684,1.737c8.516,1.028 17.437,1.563 26.787,1.563c30.538,0 45.816,-10.056 45.816,-30.2M535.501,244.028c0,0.816 -1.403,1.4 -4.187,1.744c-5.306,0.684 -18.613,1.028 -39.959,1.028c-18.275,0 -30.679,-0.344 -37.225,-1.028c-3.085,-0.344 -4.816,-0.638 -5.241,-0.869c-0.828,-0.331 -1.809,-1.509 -2.928,-3.469c-2.081,-4.519 -5.163,-11.225 -9.2,-20.128c-5.441,-11.581 -13.96,-28.662 -25.522,-51.219c-2.506,-4.509 -8.3,-6.984 -17.366,-7.462c4.178,0.247 -3.006,0.35 -21.553,0.35c-2.081,0 -3.134,2.944 -3.134,8.862c0,7.875 0.875,19.613 2.606,35.228c1.763,15.613 2.628,27.366 2.628,35.241c0,1.956 -0.631,3.122 -1.884,3.466c-1.953,0.103 -3.913,0.231 -5.853,0.34c-8.25,0.46 -21.069,0.688 -38.5,0.688c-19.95,0 -31.938,-0.344 -35.972,-1.028c-4.063,-0.713 -6.069,-2.485 -6.069,-5.391c0,-12.728 0.719,-31.925 2.2,-57.603c1.45,-25.697 2.188,-44.969 2.188,-57.806c0,-48.944 -1.335,-87.135 -3.975,-114.56l-0.21,-2.431c-0.15,-1.947 2.06,-3.297 6.591,-3.991c4.528,-0.687 25.837,-1.384 63.912,-2.087c25.8,-0.459 46.353,-0.678 61.707,-0.678c31.796,0 57.737,5.95 77.837,17.875c22.716,13.422 34.091,32.803 34.091,58.14c0,16.894 -2.935,30.369 -8.794,40.447c-5.859,10.057 -16.669,19.844 -32.419,29.316c-3.215,1.859 -4.806,3.594 -4.806,5.216c0,-0.116 8.494,14.406 25.503,43.568c17.028,29.141 25.534,45.25 25.534,48.241" style="fill:#fff;fill-rule:nonzero;"/><path d="M744.35,180.998c0,22.437 -3.234,37.728 -9.687,45.912c-11.869,14.966 -41.497,22.416 -88.885,22.416c-21.409,0 -37.887,-1.36 -49.443,-4.081c-18.438,-4.407 -30.429,-12.81 -35.935,-25.194c-2.756,-6.075 -4.131,-16.888 -4.131,-32.444c0,-3.609 0.156,-8.981 0.472,-16.097c0.315,-7.14 0.481,-12.456 0.481,-15.969c0,-10.193 -0.587,-25.503 -1.753,-45.896c-1.169,-20.397 -1.738,-35.65 -1.738,-45.782c0,-2.103 1.113,-3.159 3.325,-3.159c6.463,0 16.25,0.219 29.344,0.662c13.085,0.441 22.86,0.657 29.331,0.657c2.644,0 3.975,0.975 3.975,2.9c0,11.615 -0.453,28.99 -1.359,52.172c-0.894,23.162 -1.35,40.556 -1.35,52.165c0,13.81 1.75,23.131 5.256,27.978c4.666,6.578 14.413,9.878 29.25,9.878c21.722,0 32.588,-8.743 32.588,-26.246c0,-12.747 -0.369,-31.869 -1.103,-57.382c-0.738,-25.5 -1.11,-44.625 -1.11,-57.378c0,-2.731 1.313,-4.087 3.975,-4.087c6.244,0 15.675,-0.216 28.3,-0.657c12.603,-0.443 22.038,-0.662 28.297,-0.662c3.069,0 4.606,1.056 4.606,3.159c0,10.132 -0.493,25.385 -1.518,45.782c-0.997,20.393 -1.491,35.703 -1.491,45.896c0,2.825 0.038,7.06 0.15,12.744c0.097,5.65 0.153,9.903 0.153,12.713" style="fill:#fff;fill-rule:nonzero;"/><path d="M1012.73,241.69c0,2.725 -1.525,4.082 -4.594,4.082l-56.294,0c-3.084,0 -4.615,-1.544 -4.615,-4.607c0,-8.89 0.409,-22.225 1.193,-39.975c0.803,-17.759 1.188,-31.087 1.188,-39.978c0,-2.559 -0.469,-3.915 -1.425,-4.087c-1.166,0.528 -8.253,14.122 -21.303,40.759c-7.616,15.65 -15.269,31.253 -22.9,46.831c-1.072,2.013 -2.382,3.21 -3.975,3.554c-0.528,0.096 -2.653,0.128 -6.363,0.128c-5.525,0 -8.797,-0.885 -9.85,-2.625c-5.737,-9.669 -13.256,-23.747 -22.569,-42.21c-9.959,-19.531 -17.45,-33.634 -22.44,-42.35c-0.203,-0.434 -0.678,-0.918 -1.416,-1.456c-0.734,0.797 -1.1,2.078 -1.1,3.834c0,8.622 0.235,21.56 0.781,38.775c0.529,17.247 0.782,30.166 0.782,38.8c0,3.063 -1.466,4.607 -4.425,4.607l-53.113,0c-2.128,0 -3.422,-0.288 -3.903,-0.853c-0.472,-0.585 -0.716,-1.56 -0.716,-2.975c0,-9.594 0.56,-24.004 1.666,-43.204c1.128,-19.212 1.678,-33.6 1.678,-43.2c0,-10.19 -0.537,-29.318 -1.581,-57.368c-0.116,-7.3 -0.591,-18.16 -1.444,-32.585l-0.156,-2.24c-0.106,-1.757 2.116,-2.641 6.678,-2.641c5.822,0 14.566,-0.153 26.234,-0.484c11.644,-0.288 20.391,-0.438 26.225,-0.438c1.179,0 2.807,1.847 4.932,5.528l46.425,84.566c3.287,5.706 6.04,8.569 8.275,8.569c1.159,0 3.672,-3.3 7.472,-9.888c10.703,-18.475 26.543,-46.309 47.531,-83.509c1.8,-3.419 3.765,-5.144 5.884,-5.144c3.072,0 7.722,0.128 13.919,0.416c6.209,0.24 10.887,0.384 14.066,0.384c2.634,0 6.709,-0.216 12.168,-0.672c5.463,-0.425 9.507,-0.65 12.153,-0.65c3.191,0 4.775,1.06 4.775,3.166c0,10.381 -0.45,25.862 -1.34,46.494c-0.913,20.621 -1.356,36.134 -1.356,46.496c0,9.6 0.481,23.954 1.425,43.129c0.968,19.187 1.428,33.518 1.428,43.021" style="fill:#fff;fill-rule:nonzero;"/><path d="M1279.35,241.69c0,2.725 -1.525,4.082 -4.594,4.082l-56.293,0c-3.069,0 -4.604,-1.544 -4.604,-4.607c0,-8.89 0.397,-22.225 1.182,-39.975c0.815,-17.759 1.2,-31.087 1.2,-39.978c0,-2.559 -0.482,-3.915 -1.438,-4.087c-1.147,0.528 -8.275,14.122 -21.303,40.759c-7.622,15.65 -15.25,31.253 -22.887,46.831c-1.05,2.013 -2.394,3.21 -3.975,3.554c-0.541,0.096 -2.666,0.128 -6.357,0.128c-5.531,0 -8.815,-0.885 -9.868,-2.625c-5.716,-9.669 -13.257,-23.747 -22.566,-42.21c-9.963,-19.531 -17.441,-33.634 -22.422,-42.35c-0.225,-0.434 -0.687,-0.918 -1.425,-1.456c-0.759,0.797 -1.112,2.078 -1.112,3.834c0,8.622 0.268,21.56 0.775,38.775c0.546,17.247 0.825,30.166 0.825,38.8c0,3.063 -1.51,4.607 -4.463,4.607l-53.112,0c-2.129,0 -3.422,-0.288 -3.882,-0.853c-0.481,-0.585 -0.722,-1.56 -0.722,-2.975c0,-9.594 0.544,-24.004 1.679,-43.204c1.1,-19.212 1.662,-33.6 1.662,-43.2c0,-10.19 -0.541,-29.318 -1.6,-57.368c-0.109,-7.3 -0.572,-18.16 -1.437,-32.585l-0.157,-2.24c-0.112,-1.757 2.122,-2.641 6.691,-2.641c5.809,0 14.562,-0.153 26.222,-0.484c11.669,-0.288 20.39,-0.438 26.24,-0.438c1.15,0 2.81,1.847 4.932,5.528l46.422,84.566c3.275,5.706 6.04,8.569 8.262,8.569c1.147,0 3.672,-3.3 7.472,-9.888c10.716,-18.475 26.559,-46.309 47.544,-83.509c1.803,-3.419 3.753,-5.144 5.893,-5.144c3.072,0 7.697,0.128 13.91,0.416c6.197,0.24 10.887,0.384 14.053,0.384c2.634,0 6.722,-0.216 12.169,-0.672c5.462,-0.425 9.506,-0.659 12.168,-0.659c3.175,0 4.76,1.069 4.76,3.175c0,10.381 -0.428,25.862 -1.356,46.494c-0.882,20.621 -1.341,36.134 -1.341,46.496c0,9.6 0.494,23.954 1.437,43.129c0.957,19.187 1.416,33.518 1.416,43.021" style="fill:#fff;fill-rule:nonzero;"/><path d="M1471.73,204.745c0,3.79 -0.897,10.756 -2.703,20.856c-1.9,10.987 -3.594,17.534 -5.079,19.644c-1.278,1.668 -3.018,2.496 -5.253,2.496c-0.943,0 -2.537,-0.118 -4.759,-0.396c-7.747,-0.872 -30.309,-1.3 -67.725,-1.3c-8.181,0 -20.316,-0.072 -36.416,-0.144c-16.125,-0.097 -28.218,-0.128 -36.253,-0.128c-3.515,0 -5.256,-1.275 -5.256,-3.828c0,-9.854 0.662,-24.65 1.984,-44.388c1.341,-19.756 1.997,-34.556 1.997,-44.384c0,-10.041 -0.637,-28.71 -1.903,-56.057c-0.337,-7.043 -0.906,-17.546 -1.753,-31.531l-0.144,-1.847c-0.24,-2.025 1.1,-3.031 3.963,-3.031c7.822,0 19.634,0.181 35.356,0.528c15.756,0.353 27.547,0.525 35.387,0.525c7.747,0 19.385,-0.172 34.991,-0.525c15.569,-0.347 27.228,-0.528 34.972,-0.528c5.512,0 8.691,1.713 9.534,5.144c0.528,2.022 1.36,8.15 2.463,18.4c1.137,10.234 1.678,16.469 1.678,18.665c0,1.841 -1.056,2.76 -3.178,2.76c-0.625,0 -1.76,-0.041 -3.322,-0.122c-28.222,-1.941 -53.547,-2.903 -76.025,-2.903c-5.616,0 -9.05,1.084 -10.344,3.29c-0.506,1.054 -0.784,4.444 -0.784,10.169c0,5.972 1.075,9.938 3.178,11.872c1.809,1.659 5.244,2.503 10.319,2.503c1.075,0 3.131,-0.065 6.225,-0.194c3.068,-0.137 5.628,-0.206 7.622,-0.206c13.35,0 26.875,-0.309 40.562,-0.906c1.15,-0.094 4.059,-0.322 8.734,-0.672c3.591,-0.356 6.454,-0.525 8.594,-0.525c2.538,0 3.803,1.013 3.803,3.034c0,-1.837 -0.962,4.882 -2.859,20.172c-0.863,7.035 -1.281,14.075 -1.281,21.113c0,1.756 -1.535,2.637 -4.597,2.637l-14.325,-1.318c-6.031,-0.529 -19.803,-0.8 -41.313,-0.8l-16.868,0c-4.36,0 -6.885,0.884 -7.613,2.65c-0.128,0.434 -0.181,3.156 -0.181,8.178c0,6.675 0.547,10.984 1.597,12.918c1.79,3.354 8.581,5.329 20.347,5.925l23.209,0c5.619,0 13.972,-0.396 25.037,-1.231c11.082,-0.853 19.391,-1.269 24.9,-1.269c2.313,0 3.482,1.6 3.482,4.754" style="fill:#fff;fill-rule:nonzero;"/><path d="M1638.99,248.022c-9.112,0 -21,-0.181 -35.609,-0.525c-19.103,-0.369 -30.969,-0.584 -35.612,-0.672l-47.563,-0.528c-4.741,0.088 -11.578,-0.094 -20.481,-0.525c-3.085,-0.441 -4.603,-1.8 -4.603,-4.081c0,-9.6 0.175,-23.963 0.528,-43.078c0.397,-19.135 0.572,-33.475 0.572,-43.072c0,-10.194 -0.378,-25.478 -1.1,-45.831c-0.763,-20.366 -1.116,-35.635 -1.116,-45.844c0,-1.925 1.559,-2.897 4.753,-2.897c3.178,0 7.938,0.128 14.247,0.4c6.278,0.262 10.969,0.391 14.053,0.391c3.497,0 8.672,-0.154 15.585,-0.454c6.884,-0.331 12.078,-0.471 15.571,-0.471c1.582,0 2.35,0.831 2.222,2.512l-0.14,1.703c-1.285,16.541 -2.722,41.372 -4.282,74.528l-0.175,34.822c0,11.275 0.047,19.478 0.175,24.666c0.075,1.072 0.191,2.122 0.304,3.172c0.096,1.068 0.906,1.722 2.378,1.978l4.15,0c9.534,0 23.812,-0.413 42.834,-1.25c19.019,-0.835 33.309,-1.256 42.847,-1.256c2.844,0 4.3,1.025 4.3,3.034c0,15.034 -1.331,28.003 -3.978,38.919c-0.544,2.29 -1.644,3.65 -3.338,4.081c-0.54,0.181 -2.703,0.278 -6.522,0.278" style="fill:#fff;fill-rule:nonzero;"/></svg>