<?xml version="1.0" encoding="UTF-8" standalone="no"?>
<!DOCTYPE svg PUBLIC "-//W3C//DTD SVG 1.1//EN" "http://www.w3.org/Graphics/SVG/1.1/DTD/svg11.dtd">
<svg width="218px" height="40px" viewBox="0 0 300 55" version="1.1" xmlns="http://www.w3.org/2000/svg" xmlns:xlink="http://www.w3.org/1999/xlink" xml:space="preserve" style="fill-rule:evenodd;clip-rule:evenodd;stroke-linejoin:round;stroke-miterlimit:1.41421;">
    <g id="Layer-1" transform="matrix(1,0,0,1,0,-713)">
        <g id="g5416" transform="matrix(0.720154,0,0,0.720154,-9.17262,137.238)">
            <g id="g5418">
                <path id="path5420" d="M30.257,848.918L30.257,844.598L43.361,844.598L43.361,868.358L41.201,868.358L39.329,863.75C38.321,865.478 37.001,866.87 35.369,867.926C33.737,868.934 31.961,869.438 30.041,869.438C23.081,869.438 19.601,866.078 19.601,859.358L19.601,830.558C19.601,827.342 20.585,824.87 22.553,823.142C24.521,821.366 27.473,820.478 31.409,820.478C35.345,820.478 38.321,821.366 40.337,823.142C42.353,824.87 43.361,827.342 43.361,830.558L43.361,834.518L38.321,834.518L38.321,830.558C38.321,826.718 36.041,824.798 31.481,824.798C26.921,824.798 24.641,826.718 24.641,830.558L24.641,859.358C24.641,861.182 25.025,862.598 25.793,863.606C26.561,864.614 27.953,865.118 29.969,865.118C32.033,865.118 33.929,864.302 35.657,862.67C37.433,861.038 38.321,859.454 38.321,857.918L38.321,848.918L30.257,848.918" style="fill-rule:nonzero;"/>
                <path id="path5422" d="M56.101,859.358L56.101,821.558L61.141,821.558L61.141,859.358C61.141,861.182 61.525,862.598 62.293,863.606C63.109,864.614 64.573,865.118 66.685,865.118C68.797,865.118 70.741,864.302 72.517,862.67C74.293,861.038 75.181,859.454 75.181,857.918L75.181,821.558L80.221,821.558L80.221,868.358L78.061,868.358L76.189,863.75C75.133,865.478 73.765,866.87 72.085,867.926C70.453,868.934 68.653,869.438 66.685,869.438C59.629,869.438 56.101,866.078 56.101,859.358" style="fill-rule:nonzero;"/>
                <path id="path5424" d="M112.29,859.358L112.29,855.398L117.33,855.398L117.33,859.358C117.33,862.574 116.346,865.07 114.378,866.846C112.41,868.574 109.458,869.438 105.522,869.438C101.586,869.438 98.61,868.574 96.594,866.846C94.578,865.07 93.57,862.574 93.57,859.358L93.57,830.558C93.57,827.342 94.554,824.87 96.522,823.142C98.49,821.366 101.442,820.478 105.378,820.478C109.314,820.478 112.29,821.366 114.306,823.142C116.322,824.87 117.33,827.342 117.33,830.558L117.33,846.398L98.61,846.398L98.61,859.358C98.61,863.198 100.89,865.118 105.45,865.118C110.01,865.118 112.29,863.198 112.29,859.358M98.61,830.558L98.61,842.078L112.29,842.078L112.29,830.558C112.29,826.718 110.01,824.798 105.45,824.798C100.89,824.798 98.61,826.718 98.61,830.558" style="fill-rule:nonzero;"/>
                <path id="path5426" d="M153.686,859.358C153.686,866.078 149.63,869.438 141.518,869.438C133.406,869.438 129.35,866.078 129.35,859.358L129.35,853.238L134.39,853.238L134.39,859.646C134.39,861.374 134.99,862.718 136.19,863.678C137.39,864.638 139.166,865.118 141.518,865.118C143.87,865.118 145.646,864.638 146.846,863.678C148.046,862.718 148.646,861.422 148.646,859.79C148.646,858.11 148.454,856.79 148.07,855.83C147.734,854.822 147.014,853.766 145.91,852.662L133.238,840.278C131.75,838.79 130.718,837.35 130.142,835.958C129.614,834.518 129.35,832.718 129.35,830.558C129.35,827.342 130.334,824.87 132.302,823.142C134.318,821.366 137.342,820.478 141.374,820.478C149.102,820.478 152.966,823.838 152.966,830.558L152.966,836.678L147.926,836.678L147.926,830.27C147.926,828.542 147.35,827.198 146.198,826.238C145.094,825.278 143.414,824.798 141.158,824.798C138.902,824.798 137.198,825.278 136.046,826.238C134.942,827.198 134.39,828.518 134.39,830.198C134.39,831.878 134.558,833.198 134.894,834.158C135.23,835.118 135.974,836.126 137.126,837.182L150.014,849.566C151.406,851.102 152.366,852.59 152.894,854.03C153.422,855.422 153.686,857.198 153.686,859.358" style="fill-rule:nonzero;"/>
                <path id="path5428" d="M165.57,821.558L181.41,821.558L181.41,825.878L170.61,825.878L170.61,860.366C170.61,861.71 170.946,862.838 171.618,863.75C172.338,864.662 173.322,865.118 174.57,865.118C175.866,865.118 176.85,864.686 177.522,863.822C178.194,862.91 178.53,861.758 178.53,860.366L178.53,851.798L183.57,851.798L183.57,860.078C183.57,863.102 182.754,865.43 181.122,867.062C179.538,868.646 177.378,869.438 174.642,869.438C171.906,869.438 169.698,868.646 168.018,867.062C166.386,865.43 165.57,863.102 165.57,860.078L165.57,821.558" style="fill-rule:nonzero;"/>
                <path id="path5430" d="M269.601,848.918L269.601,844.598L282.705,844.598L282.705,868.358L280.545,868.358L278.673,863.75C277.665,865.478 276.345,866.87 274.713,867.926C273.081,868.934 271.305,869.438 269.385,869.438C262.425,869.438 258.945,866.078 258.945,859.358L258.945,830.558C258.945,827.342 259.929,824.87 261.897,823.142C263.865,821.366 266.817,820.478 270.753,820.478C274.689,820.478 277.665,821.366 279.681,823.142C281.697,824.87 282.705,827.342 282.705,830.558L282.705,834.518L277.665,834.518L277.665,830.558C277.665,826.718 275.385,824.798 270.825,824.798C266.265,824.798 263.985,826.718 263.985,830.558L263.985,859.358C263.985,861.182 264.369,862.598 265.137,863.606C265.905,864.614 267.297,865.118 269.313,865.118C271.377,865.118 273.273,864.302 275.001,862.67C276.777,861.038 277.665,859.454 277.665,857.918L277.665,848.918L269.601,848.918" style="fill-rule:nonzero;"/>
                <path id="path5432" d="M295.445,859.358L295.445,821.558L300.485,821.558L300.485,859.358C300.485,861.182 300.869,862.598 301.637,863.606C302.453,864.614 303.917,865.118 306.029,865.118C308.141,865.118 310.085,864.302 311.861,862.67C313.637,861.038 314.525,859.454 314.525,857.918L314.525,821.558L319.565,821.558L319.565,868.358L317.405,868.358L315.533,863.75C314.477,865.478 313.109,866.87 311.429,867.926C309.797,868.934 307.997,869.438 306.029,869.438C298.973,869.438 295.445,866.078 295.445,859.358" style="fill-rule:nonzero;"/>
                <path id="path5434" d="M351.633,859.358L351.633,855.398L356.673,855.398L356.673,859.358C356.673,862.574 355.689,865.07 353.721,866.846C351.753,868.574 348.801,869.438 344.865,869.438C340.929,869.438 337.953,868.574 335.937,866.846C333.921,865.07 332.913,862.574 332.913,859.358L332.913,830.558C332.913,827.342 333.897,824.87 335.865,823.142C337.833,821.366 340.785,820.478 344.721,820.478C348.657,820.478 351.633,821.366 353.649,823.142C355.665,824.87 356.673,827.342 356.673,830.558L356.673,846.398L337.953,846.398L337.953,859.358C337.953,863.198 340.233,865.118 344.793,865.118C349.353,865.118 351.633,863.198 351.633,859.358M337.953,830.558L337.953,842.078L351.633,842.078L351.633,830.558C351.633,826.718 349.353,824.798 344.793,824.798C340.233,824.798 337.953,826.718 337.953,830.558" style="fill-rule:nonzero;"/>
                <path id="path5436" d="M393.03,859.358C393.03,866.078 388.974,869.438 380.862,869.438C372.75,869.438 368.694,866.078 368.694,859.358L368.694,853.238L373.734,853.238L373.734,859.646C373.734,861.374 374.334,862.718 375.534,863.678C376.734,864.638 378.51,865.118 380.862,865.118C383.214,865.118 384.99,864.638 386.19,863.678C387.39,862.718 387.99,861.422 387.99,859.79C387.99,858.11 387.798,856.79 387.414,855.83C387.078,854.822 386.358,853.766 385.254,852.662L372.582,840.278C371.094,838.79 370.062,837.35 369.486,835.958C368.958,834.518 368.694,832.718 368.694,830.558C368.694,827.342 369.678,824.87 371.646,823.142C373.662,821.366 376.686,820.478 380.718,820.478C388.446,820.478 392.31,823.838 392.31,830.558L392.31,836.678L387.27,836.678L387.27,830.27C387.27,828.542 386.694,827.198 385.542,826.238C384.438,825.278 382.758,824.798 380.502,824.798C378.246,824.798 376.542,825.278 375.39,826.238C374.286,827.198 373.734,828.518 373.734,830.198C373.734,831.878 373.902,833.198 374.238,834.158C374.574,835.118 375.318,836.126 376.47,837.182L389.358,849.566C390.75,851.102 391.71,852.59 392.238,854.03C392.766,855.422 393.03,857.198 393.03,859.358" style="fill-rule:nonzero;"/>
                <path id="path5438" d="M404.913,821.558L420.753,821.558L420.753,825.878L409.953,825.878L409.953,860.366C409.953,861.71 410.289,862.838 410.961,863.75C411.681,864.662 412.665,865.118 413.913,865.118C415.209,865.118 416.193,864.686 416.865,863.822C417.537,862.91 417.873,861.758 417.873,860.366L417.873,851.798L422.913,851.798L422.913,860.078C422.913,863.102 422.097,865.43 420.465,867.062C418.881,868.646 416.721,869.438 413.985,869.438C411.249,869.438 409.041,868.646 407.361,867.062C405.729,865.43 404.913,863.102 404.913,860.078L404.913,821.558" style="fill-rule:nonzero;"/>
            </g>
            <g id="path5442" transform="matrix(1,0,0,1,-192.198,-125.545)">
                <path d="M408.643,931.661L412.963,931.661L412.963,946.9L428.187,947.087L428.187,951.407L412.963,951.22L412.963,966.275L408.643,966.275L408.643,951.22L393.232,951.22L393.232,946.9L408.643,946.9" style="fill-rule:nonzero;"/>
            </g>
        </g>
    </g>
</svg>
