<?xml version="1.0" encoding="UTF-8" standalone="no"?>
<!DOCTYPE svg PUBLIC "-//W3C//DTD SVG 1.1//EN" "http://www.w3.org/Graphics/SVG/1.1/DTD/svg11.dtd">
<svg width="100%" height="100%" viewBox="0 0 20 20" version="1.1" xmlns="http://www.w3.org/2000/svg" xmlns:xlink="http://www.w3.org/1999/xlink" xml:space="preserve" style="fill-rule:evenodd;clip-rule:evenodd;stroke-linejoin:round;stroke-miterlimit:1.41421;">
    <g id="Layer.-1" transform="matrix(1,0,0,1,-15,-733)">
        <g id="path8176" transform="matrix(0.212625,0,0,0.212625,14.3688,732.429)">
            <path d="M46.844,3.125C33.27,3.125 22.344,13.014 22.344,25.313C22.344,28.24 22.219,31.046 22.188,33.656C20.218,33.542 18.662,33.234 17.438,32.875C16.298,32.358 15.594,32 15.594,32C14.974,31.645 14.276,31.452 13.563,31.437C13.529,31.437 13.495,31.436 13.461,31.436C11.122,31.436 9.198,33.361 9.198,35.7C9.198,37.277 10.074,38.731 11.469,39.469C11.469,39.469 14.983,41.365 21.219,43.344C21.218,43.355 21.219,43.364 21.219,43.375L19.5,44.188C19.5,44.188 14.057,46.515 15.656,53.781C16.704,58.545 20.278,60.828 22.969,61.906C23.634,64.324 24.493,67.233 25.625,70.938C27.266,76.309 30.933,81.855 35.344,86.094L2.969,96.75L97.031,96.75L64.528,86.128C69.053,82.18 72.861,77.417 74.531,71.906C75.791,67.748 76.718,64.541 77.406,61.75C80.045,60.611 83.344,58.324 84.344,53.781C85.943,46.515 80.5,44.188 80.5,44.188L78.813,43.406C85.146,41.378 88.625,39.406 88.625,39.406C90.03,38.672 90.913,37.213 90.913,35.628C90.913,33.289 88.989,31.365 86.65,31.365C85.82,31.365 85.007,31.607 84.312,32.063C84.313,32.063 84.118,32.183 83.75,32.375C83.73,32.385 83.677,32.395 83.656,32.406C82.403,32.81 80.643,33.585 77.75,33.938C77.63,31.252 77.406,28.342 77.406,25.313C77.406,13.014 66.48,3.125 52.906,3.125L46.844,3.125ZM44.531,30.625C45.785,30.621 47.051,30.859 48.25,31.313C50.572,32.37 51.779,33.342 53.063,35.313C54.384,34.182 57.502,33.572 60.281,34.781C62.918,36.204 63.814,37.197 64.656,40.25C67.076,40.722 69.334,42.55 70.313,44.594C71.691,47.494 71.658,50.491 70.219,53.25C68.652,56.498 65.627,57.514 62.781,57.344C61.351,60.636 59.707,63.217 56.188,63.563C53.652,63.726 52.157,63.467 50.75,62.344C48.975,64.266 47.193,65.632 42.625,65.219C37.648,64.467 36.011,61.358 35.375,58.688C29.994,58.521 26.815,54.087 26.813,49.313C27.018,43.926 30.247,41.407 34.219,40.281C34.219,40.281 34.477,37.005 35.625,35.594C36.166,34.722 37.733,33.096 38.594,32.5C40.356,31.281 42.442,30.632 44.531,30.625Z" style="fill:white;fill-rule:nonzero;"/>
        </g>
        <g id="path8257" transform="matrix(0.212625,0,0,0.212625,14.3688,590.395)">
            <path d="M42.954,729.473C40.814,729.013 39.477,727.951 38.647,726.163C38.228,725.136 38.066,724.277 37.833,723.2C36.15,723.315 34.46,723.096 33.279,722.365C32.103,721.622 31.04,720.024 30.785,718.613C30.638,717.801 30.728,716.255 30.964,715.534C31.321,714.442 32.07,713.114 32.93,712.558C34.435,711.531 35.722,711.079 37.133,710.726C37.166,708.419 37.908,705.981 39.319,704.433C40.747,702.903 42.085,702.227 44.447,702.25C49.485,702.526 51.297,706.459 51.915,707.867C52.795,706.689 53.741,705.852 55.415,705.62C56.976,705.279 58.998,705.892 60.138,707.013C61.653,708.427 61.798,709.791 62.066,711.298C65.202,711.333 66.785,712.537 67.581,715.317C67.843,716.244 67.792,717.717 67.466,718.615C66.846,720.105 66.285,720.849 65.023,721.433C63.703,722.267 61.38,722.189 59.948,721.798C59.887,724.916 58.473,727.799 55.392,727.952C52.119,727.946 50.895,726.16 49.867,724.297C48.804,727.923 46.622,729.719 42.954,729.473Z" style="fill:rgb(191,191,191);fill-rule:nonzero;"/>
        </g>
    </g>
</svg>
