<?xml version="1.0" encoding="UTF-8" standalone="no"?>
<!DOCTYPE svg PUBLIC "-//W3C//DTD SVG 1.1//EN" "http://www.w3.org/Graphics/SVG/1.1/DTD/svg11.dtd">
<svg width="100%" height="100%" viewBox="0 0 1064 497" version="1.1" xmlns="http://www.w3.org/2000/svg" xmlns:xlink="http://www.w3.org/1999/xlink" xml:space="preserve" style="fill-rule:evenodd;clip-rule:evenodd;stroke-linejoin:round;stroke-miterlimit:1.41421;">
    <g transform="matrix(1.13644,0,0,1.13644,91.5403,1.09193)">
        <path d="M0.854,435.529C3.247,433.413 6.284,432.779 9.4,432.779C31.6,432.479 53.2,426.979 75.3,425.379C83.9,424.779 92.5,424.779 101.1,424.779C137.3,419.379 173.7,418.079 210.2,417.079C224.7,416.679 239.1,415.279 253.6,414.579L253.947,414.581C253.898,415.769 253.958,416.939 254.2,418.079C268.4,422.179 273.4,418.079 271.5,404.279C271.1,401.479 270.4,398.979 268.8,396.679C267.5,387.879 265.3,379.079 265.1,370.179C265.004,366.973 266.473,360.2 264.62,360.279C262.278,360.379 259.69,359.748 256.3,359.279C250.1,358.379 246.8,355.379 249.7,348.679C249.286,347.602 249.215,346.524 249.146,345.333C249.359,346.423 249.543,347.538 249.7,348.679C251.3,336.279 252.3,323.579 254.9,311.079C256.8,301.679 254.7,294.879 246.3,290.179C246.238,290.165 246.176,290.152 246.114,290.139C246.714,279.638 248.041,269.044 244.426,258.734C244.419,258.651 244.41,258.566 244.4,258.479C241.8,249.279 249.5,237.779 238.2,230.379C237.8,230.179 238.2,228.379 238.6,227.479C245.6,210.979 248.9,193.379 253.2,176.179C253.176,176.135 253.153,176.092 253.129,176.049L253.2,176.079C254.813,174.767 256.425,173.44 258.038,172.11L261.263,169.448C262.875,168.118 264.488,166.792 266.1,165.479L265.952,165.507L266,165.479C269.92,164.244 280.558,164.88 282.146,163.479C284.123,161.734 282.207,159.717 282.146,157.179C282.054,153.396 277.244,154.255 277.15,153.466C276.811,150.632 277.201,147.758 275.4,142.479L275.382,142.086C275.194,138.023 275.097,134.054 275,130.179C274.965,130.189 274.93,130.2 274.897,130.212L274.9,130.179C280.3,111.479 297.6,108.679 312.5,124.079L312.678,124.149C313.752,126.492 313.354,127.922 314.1,132.079C320.134,128.122 327.973,123.763 333.713,120.002L333.8,119.979C336.8,117.779 339.8,115.379 342.9,113.379C354.6,105.779 358.7,92.279 367.1,82.179C369.38,80.692 370.383,78.517 371.082,76.044L371.3,76.079C380.6,68.079 392.4,65.579 403.4,61.179C406.307,60.022 418.764,58.539 418.764,58.539C418.764,58.539 420.27,53.241 417.969,47.964C416.995,45.731 415.34,43.501 412.6,41.679C409.8,34.979 410.7,28.379 410.9,21.679L410.687,21.703L410.788,21.597L411.2,21.779C413.5,18.579 411.8,14.679 413.1,11.279L412.99,11.288L413.1,11.179C417.385,5.798 422.763,2.005 429.431,0C429.415,0.058 429.405,0.118 429.4,0.179C436.2,0.279 442.3,2.679 448.1,6.079L448.13,5.874C448.153,5.909 448.177,5.944 448.2,5.979C449.119,7.948 450.018,9.936 450.916,11.926L451.684,13.632C452.388,15.192 453.093,16.751 453.807,18.3C453.816,18.706 453.976,19.134 454.3,19.579C453.2,26.279 459.1,32.479 455.2,39.479C453.1,43.079 445.4,45.979 451,51.579C454.6,55.179 452.56,60.499 457.96,62.499C469.36,66.699 482.9,74.279 492.4,81.579C493.302,81.506 494.2,82.039 495.095,81.879C501.706,91.648 502.31,102.432 504.3,113.579C504.9,115.579 505.3,117.579 505.5,119.679C505.2,123.779 507.5,127.479 507.7,131.479C507.8,137.879 509.9,144.079 510.3,150.479C510.7,154.079 512,157.479 512.1,161.079C512.363,161.998 512.702,162.897 513.05,163.795L513.35,164.564C513.698,165.461 514.038,166.36 514.3,167.279C515.971,173.869 513.765,180.373 513.839,186.951C513.024,187.21 512.288,187.597 511.6,188.079C510.3,201.779 509.9,215.679 511.3,229.379C512.6,242.079 509.8,252.179 498.2,258.779C492.4,262.879 491.4,259.579 492.6,254.779C493.5,251.079 494.9,247.579 493.5,243.979C490.6,244.079 492.8,249.179 488.6,248.179C486.2,242.379 487.9,235.879 490.4,231.579C498.578,217.118 495.019,203.055 491.826,188.596L491.9,188.479C491.2,182.979 490.4,177.479 489.7,171.879C488.2,165.879 486.7,159.779 484.7,150.979C482.6,159.979 486.2,165.979 484.2,171.979C479.7,178.479 486.1,185.579 483.1,192.179L483.13,192.201C483.087,192.194 483.044,192.187 483,192.179C480.4,193.479 480.4,195.279 480.9,198.079C482.2,205.079 482.7,212.279 483.7,219.379C486.2,237.679 477.4,254.979 479.3,273.279C476.72,277.248 477.586,281.709 477.502,286.076L477.5,286.179C471.12,312.099 467.423,338.317 464.725,364.734C464.684,364.816 464.643,364.898 464.6,364.979C459.9,378.179 460.1,392.479 454.5,405.679C452.3,410.779 457.8,418.679 463.4,418.379C473.8,417.879 483.9,418.679 494.2,419.379C517.8,421.079 541.3,423.679 565,421.679C566.528,420.5 567.323,419.45 567.606,418.491C582.351,417.585 596.931,420.243 611.6,421.379C634.3,423.179 657.1,421.579 679.6,425.279C683,425.779 686.5,426.079 689.7,427.379C717.4,431.179 745.4,431.879 773.1,434.979C773.5,435.182 773.902,435.365 774.306,435.529L0.854,435.529ZM394.4,416.828C394.42,416.819 394.77,416.779 399.6,416.779C407.1,416.779 414.7,417.679 421.6,418.079C423.7,407.379 425.2,396.979 425.1,386.479C425.067,386.442 425.035,386.405 425.003,386.367C428.905,370.272 432.6,356.075 432.1,338.279C431.801,327.101 430.827,317.915 431.794,306.844L431.8,306.779C430.9,292.579 429.9,278.379 429,264.079C422.4,280.079 416.2,295.879 414.8,313.079L414.887,313.014L414.8,313.179C413.225,322.517 411.65,331.868 410.075,341.223L406.925,359.935C405.356,369.254 403.787,378.57 402.218,387.872L402.2,387.879C399.612,395.246 394.446,416.637 394.4,416.828C394.398,416.829 394.4,416.829 394.4,416.829L394.4,416.828ZM335.554,294.3L335.6,294.179C334.2,275.479 338.7,257.179 338.8,238.579C338.9,221.779 338,205.079 335.6,188.479C334.7,182.479 324.976,174.878 325.064,174.781C325.064,174.781 316.421,172.409 312.6,169.679C311.794,169.104 311.3,168.279 310.6,167.579L310.512,167.321C308.702,161.978 308.856,161.931 318.7,158.879C323.6,155.979 328.4,153.179 333.3,150.279C333.364,150.318 333.428,150.358 333.492,150.398L333.5,150.379C335,148.379 337.2,147.179 339.8,146.779L339.912,146.679C342.696,144.193 351.158,142.086 351.158,142.086C351.158,142.086 351.893,143.611 355.5,145.079C363.152,148.194 368,144.279 372.2,139.379C375.2,135.879 378.6,133.479 382.8,131.179C386.7,139.679 386.4,148.379 385.8,157.179L385.795,157.185L385.502,163.336C385.535,163.383 385.568,163.431 385.6,163.479C385.6,164.879 385.6,166.179 385.6,167.579C385.567,167.583 385.533,167.586 385.5,167.59L385.5,171.779C385.7,173.979 385.8,176.179 386,178.379L385.898,178.379C385.932,178.412 385.966,178.445 386,178.479C388.6,183.579 387,190.179 392,194.579C393.2,195.679 394.4,198.179 392.5,200.179C378.6,214.679 381.8,234.879 375.5,251.879C369.5,267.879 372.9,284.579 370.8,300.879C370.722,300.862 370.645,300.845 370.569,300.826L370.6,300.879C367.9,316.079 365.2,331.479 362.5,346.779C362.426,346.689 362.355,346.598 362.287,346.506C362.322,346.63 362.36,346.755 362.4,346.879C361.2,362.979 362.464,378.663 362.5,396.679C362.516,404.696 361.306,404.18 356.7,405.979L356.664,405.955C356.025,409.057 354.82,411.265 353.049,412.751C350.844,414.602 347.76,415.334 343.8,415.279C336,415.279 328.1,416.579 320.3,417.479C312.8,418.379 310.4,414.179 310.6,407.779C310.784,401.598 311.99,395.418 314.06,389.472C314.054,389.358 314.065,389.25 314.1,389.179C314.274,388.659 314.447,388.364 314.555,388.099L314.6,387.979L314.666,387.238C315.35,379.585 316.116,371.935 316.6,364.379C316.7,362.479 317.3,360.279 318.9,360.279C332.6,359.679 328.7,350.479 327.7,342.679C327.731,342.612 327.76,342.545 327.789,342.478C327.76,342.512 327.73,342.546 327.7,342.579C326.9,338.579 325.3,334.579 325.4,330.679C325.468,325.675 323.262,317.706 325,313.014C325.832,310.767 328.475,311.486 331,309.479C333.815,307.244 334.094,301.787 334.901,296.968C334.857,296.364 335.031,295.731 335.255,295.099C335.331,294.752 335.412,294.411 335.5,294.079C335.522,294.145 335.539,294.22 335.554,294.3ZM285.6,360.795L297.6,360.719C297.6,360.719 296.389,384.082 296.595,390.234L296.6,390.379C299.6,396.979 298.6,403.879 297.6,410.579C297,414.079 294.9,417.379 289.7,416.879C285,416.479 286,413.179 285.2,410.479C283.4,404.379 283,398.279 285.6,392.279L285.6,360.795ZM323,288.979C322.7,281.979 322.4,259 322.2,253.5C325.855,261.13 328.8,282.079 323,288.979Z" style="fill:rgb(1,1,1);"/>
    </g>
</svg>
