<?xml version="1.0" encoding="UTF-8" standalone="no"?><!DOCTYPE svg PUBLIC "-//W3C//DTD SVG 1.1//EN" "http://www.w3.org/Graphics/SVG/1.1/DTD/svg11.dtd"><svg width="44px" height="36px" viewBox="0 0 44 36" version="1.1" xmlns="http://www.w3.org/2000/svg" xmlns:xlink="http://www.w3.org/1999/xlink" xml:space="preserve" style="fill-rule:evenodd;clip-rule:evenodd;stroke-linejoin:round;stroke-miterlimit:1.41421;"><clipPath id="_clip1"><rect id="Artboard1" x="0" y="0" width="44" height="35.687"/></clipPath><g clip-path="url(#_clip1)"><path d="M10.854,9.137l-2,0l0,-3.457c-1.654,0.005 -3.308,0.007 -4.963,0.007c-0.225,0.003 -0.445,0.036 -0.657,0.114c-0.515,0.188 -0.932,0.606 -1.12,1.12c-0.071,0.192 -0.105,0.392 -0.113,0.596c-0.018,1.402 -0.033,2.804 -0.044,4.206l40.086,0c-0.011,-1.402 -0.026,-2.804 -0.044,-4.206c-0.008,-0.219 -0.048,-0.434 -0.129,-0.638c-0.195,-0.495 -0.604,-0.895 -1.104,-1.078c-0.192,-0.07 -0.392,-0.105 -0.595,-0.113c-1.106,-0.014 -2.211,-0.025 -3.316,-0.035l0,-2.003c1.122,0.012 2.244,0.024 3.366,0.039c0.132,0.005 0.263,0.013 0.394,0.03c0.318,0.04 0.63,0.12 0.928,0.238c1.022,0.403 1.843,1.244 2.221,2.276c0.146,0.397 0.219,0.811 0.235,1.233c0.103,8.114 0.001,16.228 0.001,24.343c-0.002,0.132 -0.007,0.264 -0.02,0.396c-0.033,0.32 -0.105,0.635 -0.216,0.937c-0.389,1.062 -1.247,1.921 -2.31,2.31c-0.397,0.145 -0.811,0.218 -1.233,0.234c-12.113,0.154 -24.228,0.001 -36.342,0.001c-0.133,-0.001 -0.265,-0.006 -0.397,-0.02c-0.319,-0.032 -0.635,-0.105 -0.936,-0.215c-1.063,-0.389 -1.921,-1.248 -2.31,-2.31c-0.146,-0.397 -0.219,-0.812 -0.235,-1.233c-0.103,-8.114 -0.001,-16.229 -0.001,-24.343c0.002,-0.132 0.007,-0.264 0.02,-0.396c0.033,-0.32 0.105,-0.635 0.216,-0.937c0.389,-1.062 1.247,-1.921 2.31,-2.31c0.397,-0.146 0.811,-0.218 1.233,-0.234c1.691,-0.022 3.383,-0.04 5.075,-0.056l0,-3.675l2,0l0,9.179ZM42.058,13.723l-40.116,0c-0.037,6.045 -0.018,12.091 0.059,18.135c0.008,0.219 0.048,0.434 0.129,0.638c0.195,0.495 0.604,0.895 1.104,1.078c0.192,0.07 0.392,0.105 0.595,0.113c12.113,0.153 24.229,0.153 36.342,0c0.203,-0.008 0.403,-0.043 0.595,-0.113c0.5,-0.183 0.909,-0.583 1.104,-1.078c0.081,-0.204 0.121,-0.419 0.129,-0.638c0.077,-6.044 0.096,-12.09 0.059,-18.135ZM30.553,18.049l-8.838,13.101l-0.04,0.055c-0.089,0.107 -0.188,0.197 -0.311,0.264c-0.325,0.177 -0.732,0.157 -1.039,-0.05c-0.115,-0.079 -0.205,-0.178 -0.283,-0.293l-4.237,-6.684l1.689,-1.07l3.418,5.392l7.983,-11.834c0.553,0.373 1.106,0.746 1.658,1.119ZM34.855,9.137l-2,0l0,-3.508c-6.667,-0.027 -13.334,0.011 -20.001,0.037l0,-2.064c6.667,-0.042 13.334,-0.038 20.001,0.012l0,-3.656l2,0l0,9.179Z" style="fill:#fff;"/></g></svg>